<?xml version="1.0" encoding="utf-8"?>
<!-- Generator: Adobe Illustrator 12.0.0, SVG Export Plug-In . SVG Version: 6.00 Build 51448)  -->
<!DOCTYPE svg PUBLIC "-//W3C//DTD SVG 1.1//EN" "http://www.w3.org/Graphics/SVG/1.1/DTD/svg11.dtd" [
	<!ENTITY ns_svg "http://www.w3.org/2000/svg">
	<!ENTITY ns_xlink "http://www.w3.org/1999/xlink">
]>
<svg  version="1.1" id="Layer_1" xmlns="&ns_svg;" xmlns:xlink="&ns_xlink;" width="163.81" height="153.212"
	 viewBox="0 0 163.81 153.212" overflow="visible" enable-background="new 0 0 163.81 153.212" xml:space="preserve">
<g>
	<g id="XMLID_1_">
		<g>
			<path fill="#FFFFFF" d="M163.56,123.04c0,0.721,0,2.16,0,3.471c0,0.72-0.279,1.409-0.79,1.92c-0.51,0.5-1.199,0.79-1.92,0.79
				c-0.29,0-0.56,0-0.77,0c-0.271,0-0.48-0.221-0.48-0.48c0-1.229,0-4.479,0-5.7c0-0.27,0.21-0.479,0.48-0.479c0.76,0,2.24,0,3,0
				C163.35,122.56,163.56,122.77,163.56,123.04z"/>
			<path fill="#FFFFFF" d="M156.36,16.65c0,0.72,0,2.16,0,3.47c0,0.72-0.29,1.41-0.79,1.92c-0.511,0.5-1.2,0.79-1.92,0.79
				c-0.29,0-0.561,0-0.78,0c-0.26,0-0.47-0.22-0.47-0.48c0-1.23,0-4.48,0-5.7c0-0.27,0.21-0.48,0.47-0.48c0.77,0,2.25,0,3.01,0
				C156.15,16.17,156.36,16.38,156.36,16.65z"/>
			<path fill="#FFFFFF" d="M156.06,123.11c0,0.76,0,2.1,0,2.85c0,0.15-0.06,0.29-0.159,0.4c-0.11,0.1-0.25,0.16-0.4,0.16
				c-2.35,0-11.4,0-13.75,0c-0.15,0-0.29-0.061-0.39-0.16c-0.11-0.11-0.17-0.25-0.17-0.4c0-2.859,0-15.84,0-18.699
				c0-0.15,0.06-0.29,0.17-0.4c0.1-0.1,0.239-0.16,0.39-0.16c2.33,0,11.24,0,13.57,0c0.149,0,0.29,0.061,0.39,0.16
				c0.11,0.11,0.17,0.25,0.17,0.4c0,0.75,0,2.09,0,2.84c0,0.149-0.06,0.29-0.17,0.399c-0.1,0.101-0.24,0.16-0.39,0.16
				c-2.2,0-10.16,0-10.16,0v4.17c0,0,7.63,0,9.78,0c0.31,0,0.56,0.25,0.56,0.55c0,0.671,0,1.79,0,2.45
				c0,0.311-0.25,0.561-0.56,0.561c-2.15,0-9.78,0-9.78,0v4.17c0,0,8.12,0,10.34,0c0.15,0,0.29,0.06,0.4,0.16
				C156,122.82,156.06,122.97,156.06,123.11z"/>
			<path fill="#FFFFFF" d="M150.72,1.05c0,1.73,0,6.17,0,9.08c0,1.5-1.22,2.71-2.72,2.71c-1.36,0-2.74,0-2.74,0s0,4.82,0,6.68
				c0,0.2-0.069,0.38-0.21,0.51c-0.13,0.14-0.319,0.21-0.51,0.21c-0.71,0-1.8,0-2.521,0c-0.189,0-0.369-0.07-0.51-0.21
				c-0.14-0.13-0.21-0.31-0.21-0.51c0-1.86,0-6.68,0-6.68s-1.37,0-2.74,0c-1.5,0-2.71-1.21-2.71-2.71c0-2.91,0-7.35,0-9.08
				c0-0.19,0.07-0.37,0.21-0.51c0.131-0.13,0.32-0.21,0.511-0.21c0.71,0,1.8,0,2.52,0c0.19,0,0.38,0.08,0.51,0.21
				c0.141,0.14,0.21,0.32,0.21,0.51c0,2.11,0,8.14,0,8.14h6.94c0,0,0-6.03,0-8.14c0-0.19,0.08-0.37,0.21-0.51
				c0.14-0.13,0.32-0.21,0.51-0.21c0.721,0,1.811,0,2.53,0c0.19,0,0.37,0.08,0.5,0.21C150.64,0.68,150.72,0.86,150.72,1.05z"/>
			<path fill="#FFFFFF" d="M137.46,123.19c0,0.72,0,1.81,0,2.53c0,0.189-0.07,0.37-0.21,0.51c-0.13,0.13-0.32,0.21-0.51,0.21
				c-2.38,0-9.96,0-12.34,0c-0.4,0-0.721-0.33-0.721-0.72c0-3.101,0-15.29,0-18.38c0-0.2,0.07-0.381,0.21-0.511
				c0.13-0.14,0.32-0.21,0.511-0.21c0.71,0,1.81,0,2.52,0c0.19,0,0.37,0.07,0.51,0.21c0.141,0.13,0.21,0.311,0.21,0.511
				c0,3.09,0,15.13,0,15.13s6.841,0,9.101,0c0.189,0,0.38,0.08,0.51,0.21C137.39,122.82,137.46,123,137.46,123.19z"/>
			<path fill="#FFFFFF" d="M128.97,13.02c0,0,2.44,4.63,3.391,6.43c0.08,0.15,0.08,0.33-0.011,0.47
				c-0.09,0.15-0.239,0.23-0.409,0.23c-0.931,0-2.41,0-3.04,0c-0.181,0-0.341-0.09-0.42-0.25c-0.681-1.28-3.631-6.88-3.631-6.88
				H121.2c0,0,0,4.89,0,6.58c0,0.14-0.061,0.29-0.16,0.39c-0.11,0.11-0.25,0.16-0.4,0.16c-0.75,0-2.09,0-2.85,0
				c-0.14,0-0.29-0.05-0.39-0.16c-0.11-0.1-0.17-0.25-0.17-0.39c0-2.86,0-15.85,0-18.71c0-0.31,0.25-0.56,0.56-0.56
				c0,0,7.08,0,11.36,0c0.84,0,1.64,0.34,2.239,0.93c0.591,0.6,0.92,1.4,0.92,2.24c0,1.94,0,4.41,0,6.35
				c0,1.75-1.409,3.17-3.159,3.17H128.97z M128.53,8.26V5.88c0-0.87-0.71-1.58-1.58-1.58h-5.75v5.55h5.75
				C127.82,9.85,128.53,9.14,128.53,8.26z"/>
			<path fill="#FFFFFF" d="M126.11,43.15c0,0.73,0,2.17,0,3.47c0,0.72-0.29,1.41-0.801,1.92c-0.51,0.51-1.189,0.8-1.909,0.8
				c-0.301,0-0.561,0-0.78,0c-0.26,0-0.48-0.22-0.48-0.48c0-1.23,0-4.48,0-5.71c0-0.26,0.221-0.48,0.48-0.48c0.77,0,2.25,0,3.01,0
				C125.89,42.67,126.11,42.89,126.11,43.15z"/>
			<path fill="#FFFFFF" d="M125.04,149.39v2.279c0,0.62-0.5,1.131-1.12,1.131h-2.25c-0.62,0-1.12-0.511-1.12-1.131v-2.279
				c0-0.62,0.5-1.12,1.12-1.12h2.25C124.54,148.27,125.04,148.77,125.04,149.39z"/>
			<path fill="#FFFFFF" d="M118.98,107.169c0,2.86,0,15.851,0,18.71c0,0.15-0.061,0.29-0.16,0.391c-0.11,0.109-0.25,0.17-0.4,0.17
				c-0.75,0-2.09,0-2.85,0c-0.141,0-0.28-0.061-0.391-0.17c-0.1-0.101-0.16-0.24-0.16-0.391c0-2.859,0-15.85,0-18.71
				c0-0.14,0.061-0.29,0.16-0.39c0.11-0.11,0.25-0.16,0.391-0.16c0.76,0,2.1,0,2.85,0c0.15,0,0.29,0.05,0.4,0.16
				C118.92,106.879,118.98,107.03,118.98,107.169z"/>
			<path fill="#FFFFFF" d="M118.61,43.42c0,0.71,0,1.81,0,2.52c0,0.19-0.08,0.38-0.221,0.51c-0.13,0.14-0.31,0.21-0.5,0.21
				c-2.38,0-9.97,0-12.35,0c-0.4,0-0.72-0.32-0.72-0.72c0-3.1,0-15.28,0-18.38c0-0.19,0.08-0.37,0.21-0.51
				c0.14-0.13,0.319-0.21,0.51-0.21c0.72,0,1.81,0,2.53,0c0.189,0,0.37,0.08,0.5,0.21c0.14,0.14,0.22,0.32,0.22,0.51
				c0,3.1,0,15.14,0,15.14s6.83,0,9.1,0c0.19,0,0.37,0.07,0.5,0.21C118.53,43.04,118.61,43.23,118.61,43.42z"/>
			<path fill="#FFFFFF" d="M117.01,136.29c0,3.66,0,9.69,0,13.36c0,1.74-1.41,3.15-3.14,3.15c-2.5,0-5.96,0-8.46,0
				c-1.73,0-3.141-1.41-3.141-3.15c0-3.67,0-9.7,0-13.36c0-1.739,1.41-3.149,3.141-3.149c2.5,0,5.96,0,8.46,0
				C115.6,133.14,117.01,134.55,117.01,136.29z M113.08,147.29c0-2.26,0-6.39,0-8.649c0-0.86-0.71-1.57-1.57-1.57
				c-1.12,0-2.62,0-3.74,0c-0.869,0-1.569,0.71-1.569,1.57c0,2.26,0,6.39,0,8.649c0,0.87,0.7,1.57,1.569,1.57c1.12,0,2.62,0,3.74,0
				C112.37,148.86,113.08,148.16,113.08,147.29z"/>
			<path fill="#FFFFFF" d="M112.49,3.49c0,4.88,0,13.94,0,16.27c0,0.15-0.061,0.29-0.16,0.4c-0.11,0.1-0.25,0.16-0.4,0.16
				c-0.75,0-2.069,0-2.819,0c-0.15,0-0.29-0.06-0.4-0.16c-0.1-0.11-0.16-0.25-0.16-0.4v-5.75h-6.96v5.75c0,0.15-0.06,0.29-0.16,0.4
				c-0.109,0.1-0.25,0.16-0.399,0.16c-0.75,0-2.08,0-2.83,0c-0.311,0-0.561-0.25-0.561-0.56c0-2.33-0.01-11.38-0.01-16.27
				c0-0.83,0.33-1.64,0.92-2.23c0.59-0.59,1.4-0.93,2.24-0.93c2.51,0,6.03,0,8.55,0c0.83,0,1.641,0.34,2.23,0.93
				C112.16,1.85,112.49,2.65,112.49,3.49z M108.55,10.25V5.87c0-0.88-0.72-1.59-1.59-1.59c-1.14,0-2.65,0-3.78,0
				c-0.88,0-1.59,0.71-1.59,1.59v4.38H108.55z"/>
			<path fill="#FFFFFF" d="M111.44,107.09c0,0.75,0,2.09,0,2.85c0,0.31-0.25,0.56-0.561,0.56c-1.439,0-5.189,0-5.189,0
				s0,12.48,0,15.29c0,0.15-0.051,0.29-0.16,0.4c-0.101,0.1-0.25,0.16-0.391,0.16c-0.76,0-2.1,0-2.85,0c-0.15,0-0.29-0.061-0.4-0.16
				c-0.1-0.11-0.159-0.25-0.159-0.4c0-2.81,0-15.29,0-15.29s-3.75,0-5.19,0c-0.31,0-0.56-0.25-0.56-0.56c0-0.76,0-2.1,0-2.85
				c0-0.15,0.06-0.29,0.17-0.391c0.1-0.109,0.239-0.17,0.39-0.17c2.41,0,11.93,0,14.34,0c0.15,0,0.29,0.061,0.4,0.17
				C111.38,106.8,111.44,106.94,111.44,107.09z"/>
			<path fill="#FFFFFF" d="M108.99,69.66c0,0.73,0,2.17,0,3.47c0,0.72-0.29,1.41-0.79,1.92c-0.51,0.51-1.2,0.79-1.92,0.79
				c-0.3,0-0.561,0-0.78,0c-0.26,0-0.47-0.21-0.47-0.48c0-1.22,0-4.47,0-5.7c0-0.26,0.21-0.48,0.47-0.48c0.77,0,2.25,0,3.01,0
				C108.77,69.18,108.99,69.4,108.99,69.66z"/>
			<path fill="#FFFFFF" d="M101.49,69.83c0,0.72,0,1.81,0,2.53c0,0.19-0.08,0.37-0.21,0.51c-0.141,0.13-0.32,0.21-0.511,0.21
				c-2.38,0-9.97,0-12.35,0c-0.39,0-0.72-0.32-0.72-0.72c0-3.1,0-15.28,0-18.38c0-0.19,0.08-0.38,0.21-0.51
				c0.14-0.14,0.32-0.21,0.51-0.21c0.72,0,1.811,0,2.53,0c0.189,0,0.37,0.07,0.51,0.21c0.13,0.13,0.21,0.32,0.21,0.51
				c0,3.1,0,15.13,0,15.13s6.83,0,9.1,0c0.19,0,0.37,0.08,0.511,0.22C101.41,69.46,101.49,69.64,101.49,69.83z"/>
			<path fill="#FFFFFF" d="M100.38,29.91c0,4.88,0,13.94,0,16.27c0,0.15-0.06,0.29-0.16,0.4c-0.1,0.1-0.25,0.16-0.399,0.16
				c-0.75,0-2.07,0-2.82,0c-0.15,0-0.29-0.06-0.4-0.16c-0.1-0.11-0.159-0.25-0.159-0.4v-5.75h-6.96v5.75c0,0.15-0.061,0.29-0.16,0.4
				c-0.11,0.1-0.25,0.16-0.4,0.16c-0.75,0-2.08,0-2.83,0c-0.31,0-0.56-0.25-0.56-0.56c0-2.33-0.011-11.39-0.011-16.27
				c0-0.84,0.33-1.64,0.921-2.23c0.59-0.6,1.399-0.93,2.239-0.93c2.521,0,6.03,0,8.551,0c0.829,0,1.64,0.33,2.229,0.93
				C100.05,28.27,100.38,29.07,100.38,29.91z M96.44,36.67v-4.38c0-0.88-0.71-1.59-1.591-1.59c-1.14,0-2.649,0-3.779,0
				c-0.88,0-1.59,0.71-1.59,1.59v4.38H96.44z"/>
			<path fill="#FFFFFF" d="M98.55,143.11c0,1.68,0,6.58,0,6.58c0,0.83-0.33,1.61-0.91,2.2c-0.58,0.58-1.37,0.91-2.189,0.91
				c-0.49,0-0.83,0-0.83,0h-6.89c0,0-0.341,0-0.82,0c-0.83,0-1.62-0.33-2.2-0.91c-0.58-0.59-0.91-1.37-0.91-2.2
				c0-3.68,0-9.771,0-13.45c0-0.82,0.33-1.61,0.91-2.189c0.58-0.58,1.37-0.91,2.2-0.91c2.51,0,6.03,0,8.54,0
				c0.819,0,1.609,0.33,2.189,0.91c0.58,0.579,0.91,1.369,0.91,2.189c0,0,0,1.83,0,2.78c0,0.14-0.06,0.28-0.16,0.39
				c-0.109,0.101-0.25,0.16-0.399,0.16c-0.75,0-2.07,0-2.82,0c-0.3,0-0.55-0.25-0.55-0.55c0-0.49,0-1.12,0-1.12
				c0-0.22-0.09-0.43-0.25-0.59c-0.15-0.15-0.36-0.24-0.58-0.24c-1.12,0-3.11,0-4.5,0c-0.86,0-1.56,0.7-1.56,1.55
				c0,2.26,0,6.431,0,8.69c0,0.859,0.699,1.55,1.56,1.55c1.39,0,3.38,0,4.5,0c0.22,0,0.43-0.08,0.58-0.24
				c0.16-0.16,0.25-0.37,0.25-0.59v-2.14c0,0-2,0-3,0c-0.15,0-0.29-0.061-0.4-0.16c-0.1-0.11-0.16-0.25-0.16-0.4
				c0-0.8,0-2.21,0-2.21c0-0.3,0.25-0.55,0.561-0.55c1.38,0,4.99-0.01,6.37-0.01c0.149,0,0.29,0.05,0.39,0.16
				C98.49,142.82,98.55,142.959,98.55,143.11z"/>
			<path fill="#FFFFFF" d="M93,109.69c0,4.88,0,13.939,0,16.27c0,0.15-0.06,0.29-0.17,0.4c-0.1,0.1-0.24,0.16-0.39,0.16
				c-0.75,0-2.08,0-2.83,0c-0.15,0-0.29-0.061-0.4-0.16c-0.1-0.11-0.16-0.25-0.16-0.4v-5.75h-6.96v5.75c0,0.15-0.06,0.29-0.16,0.4
				c-0.11,0.1-0.25,0.16-0.4,0.16c-0.75,0-2.07,0-2.82,0c-0.31,0-0.56-0.25-0.56-0.561c0-2.33-0.01-11.39-0.02-16.27
				c0-0.84,0.33-1.64,0.93-2.23c0.59-0.6,1.39-0.93,2.23-0.93c2.52,0,6.03,0,8.55,0c0.84,0,1.641,0.33,2.23,0.93
				C92.66,108.05,93,108.85,93,109.69z M89.05,116.45v-4.38c0-0.88-0.71-1.59-1.59-1.59c-1.13,0-2.64,0-3.77,0
				c-0.88,0-1.6,0.71-1.6,1.59v4.38H89.05z"/>
			<path fill="#FFFFFF" d="M92.8,1.14c0,3.11,0,15.41,0,18.52c0,0.4-0.319,0.72-0.72,0.72c-0.98,0-2.71,0-3.51,0
				c-0.261,0-0.5-0.14-0.63-0.37c-1.15-2.1-6.74-12.33-6.74-12.33s0,9.29,0,11.98c0,0.19-0.07,0.38-0.21,0.51
				c-0.13,0.14-0.31,0.21-0.51,0.21c-0.71,0-1.8,0-2.52,0c-0.19,0-0.37-0.07-0.51-0.21c-0.13-0.13-0.21-0.32-0.21-0.51
				c0-3.11,0-15.41,0-18.52c0-0.4,0.32-0.72,0.72-0.72c0.98,0,2.71,0,3.51,0c0.26,0,0.51,0.14,0.63,0.37
				c1.15,2.1,6.74,12.33,6.74,12.33s0-9.29,0-11.98c0-0.19,0.07-0.38,0.21-0.51c0.13-0.14,0.32-0.21,0.51-0.21
				c0.71,0,1.811,0,2.521,0c0.189,0,0.38,0.07,0.51,0.21C92.73,0.76,92.8,0.95,92.8,1.14z"/>
			<path fill="#FFFFFF" d="M82.83,56.41c0,4.89,0,13.95,0,16.28c0,0.15-0.06,0.29-0.16,0.39c-0.11,0.11-0.25,0.17-0.4,0.17
				c-0.75,0-2.08,0-2.83,0c-0.15,0-0.29-0.06-0.39-0.17c-0.11-0.1-0.17-0.24-0.17-0.39v-5.76h-6.96v5.76c0,0.15-0.05,0.29-0.16,0.39
				c-0.1,0.11-0.25,0.17-0.39,0.17c-0.76,0-2.08,0-2.83,0c-0.31,0-0.56-0.25-0.56-0.56c0-2.33-0.01-11.39-0.02-16.27
				c0-0.84,0.33-1.64,0.93-2.24c0.59-0.59,1.39-0.92,2.23-0.92c2.52,0,6.03,0,8.55,0c0.84,0,1.64,0.33,2.23,0.92
				C82.5,54.77,82.83,55.58,82.83,56.41z M78.88,63.17V58.8c0-0.88-0.71-1.6-1.59-1.6c-1.13,0-2.64,0-3.77,0
				c-0.88,0-1.6,0.72-1.6,1.6v4.37H78.88z"/>
			<path fill="#FFFFFF" d="M81.98,96.26c0,0.729,0,2.17,0,3.47c0,0.72-0.29,1.41-0.79,1.92c-0.51,0.51-1.2,0.79-1.92,0.79
				c-0.29,0-0.56,0-0.77,0c-0.27,0-0.48-0.21-0.48-0.48c0-1.22,0-4.47,0-5.699c0-0.271,0.21-0.48,0.48-0.48c0.76,0,2.24,0,3,0
				C81.77,95.78,81.98,95.99,81.98,96.26z"/>
			<path fill="#FFFFFF" d="M81.28,27.23c0,2.2,0.01,11.46,0.02,16.39c0,0.82-0.33,1.62-0.91,2.2c-0.59,0.59-1.38,0.92-2.21,0.92
				c-2.54,0-6.09,0-8.63,0c-1.72,0-3.12-1.4-3.12-3.12c0-4.93,0-14.19,0-16.39c0-0.26,0.22-0.48,0.48-0.48c0.76,0,2.23,0,2.99,0
				c0.13,0,0.25,0.05,0.34,0.14c0.09,0.09,0.14,0.21,0.14,0.34c0,2.13,0,10.81,0,14.2c0,0.75,0.61,1.36,1.37,1.36c1.22,0,3,0,4.22,0
				c0.76,0,1.37-0.61,1.37-1.36c0-3.39,0-12.07,0-14.2c0-0.13,0.05-0.25,0.14-0.34c0.09-0.09,0.21-0.14,0.34-0.14
				c0.76,0,2.22,0,2.98,0C81.07,26.75,81.28,26.96,81.28,27.23z"/>
			<path fill="#FFFFFF" d="M79.38,133.69c0,2.84,0,15.71,0,18.55c0,0.15-0.05,0.29-0.16,0.39c-0.1,0.11-0.24,0.171-0.39,0.171
				c-0.75,0-2.07,0-2.82,0c-0.15,0-0.29-0.061-0.39-0.171c-0.11-0.1-0.17-0.239-0.17-0.39c0-2.84,0-15.71,0-18.55
				c0-0.14,0.06-0.28,0.17-0.39c0.1-0.101,0.24-0.16,0.39-0.16c0.75,0,2.07,0,2.82,0c0.15,0,0.29,0.06,0.39,0.16
				C79.33,133.41,79.38,133.55,79.38,133.69z"/>
			<path fill="#FFFFFF" d="M74.48,82.93c0,3.699,0,9.79,0,13.489c0,0.841-0.33,1.641-0.93,2.24c-0.59,0.59-1.4,0.931-2.24,0.931
				c-3.7,0-9.52,0-11.22,0c-0.27,0-0.48-0.221-0.48-0.48c0-2.72,0-16.15,0-18.86c0-0.27,0.21-0.479,0.48-0.479c1.7,0,7.52,0,11.22,0
				c0.84,0,1.65,0.33,2.24,0.92C74.15,81.29,74.48,82.09,74.48,82.93z M70.51,94.05c0-2.28,0-6.471,0-8.75
				c0-0.41-0.16-0.811-0.46-1.11c-0.29-0.29-0.69-0.46-1.11-0.46c-2.05,0-5.37,0-5.37,0v11.89c0,0,3.32,0,5.37,0
				c0.42,0,0.82-0.16,1.11-0.46C70.35,94.87,70.51,94.47,70.51,94.05z"/>
			<path fill="#FFFFFF" d="M73.53,117.4c0,1.92,0,4.49,0,6.41c0,1.5-1.22,2.71-2.71,2.71c-2.69,0-6.77,0-9.45,0
				c-1.5,0-2.71-1.21-2.71-2.71c0-0.99,0-2.01,0-2.58c0-0.271,0.21-0.48,0.48-0.48c0.76,0,2.24,0,3.01,0
				c0.12,0,0.24,0.051,0.33,0.141s0.15,0.21,0.15,0.34c0,0.53,0,1.33,0,1.33s4.44,0,6.22,0c0.19,0,0.37-0.08,0.51-0.21
				c0.13-0.141,0.21-0.32,0.21-0.51c0-0.711,0-1.771,0-2.471c0-0.189-0.08-0.37-0.21-0.51c-0.14-0.13-0.32-0.21-0.51-0.21
				c-1.5,0-5,0-7.48,0c-0.72,0-1.41-0.28-1.92-0.79c-0.5-0.51-0.79-1.2-0.79-1.92c0-1.95,0-4.58,0-6.54c0-0.72,0.29-1.41,0.79-1.92
				c0.51-0.51,1.2-0.79,1.92-0.79c2.68,0,6.76,0,9.45,0c1.49,0,2.71,1.21,2.71,2.71c0,0.99,0,2.01,0,2.58
				c0,0.27-0.22,0.479-0.48,0.479c-0.76,0-2.24,0-3.01,0c-0.12,0-0.25-0.05-0.34-0.14c-0.09-0.09-0.14-0.21-0.14-0.34
				c0-0.53,0-1.33,0-1.33s-4.44,0-6.22,0c-0.4,0-0.72,0.33-0.72,0.72c0,0.74,0,1.87,0,2.601c0,0.399,0.32,0.72,0.72,0.72
				c1.49,0,5,0,7.48,0C72.31,114.69,73.53,115.9,73.53,117.4z"/>
			<path fill="#FFFFFF" d="M72.5,3.63c0,3.84,0,10.16,0,14c0,1.82-1.42,3.29-3.17,3.29c-2.52,0-6.01,0-8.53,0
				c-1.75,0-3.17-1.47-3.17-3.29c0-3.84,0-10.16,0-14c0-1.82,1.42-3.3,3.17-3.3c2.52,0,6.01,0,8.53,0
				C71.08,0.33,72.5,1.81,72.5,3.63z M68.53,15.16c0-2.37,0-6.7,0-9.06c0-0.91-0.71-1.65-1.58-1.65c-1.13,0-2.64,0-3.77,0
				c-0.88,0-1.59,0.74-1.59,1.65c0,2.36,0,6.69,0,9.06c0,0.91,0.71,1.64,1.59,1.64c1.13,0,2.64,0,3.77,0
				C67.82,16.8,68.53,16.07,68.53,15.16z"/>
			<path fill="#FFFFFF" d="M71.92,133.69c0,0.75,0,2.08,0,2.83c0,0.3-0.25,0.55-0.56,0.55c-1.43,0-5.14,0-5.14,0s0,12.38,0,15.17
				c0,0.15-0.06,0.29-0.17,0.39c-0.1,0.11-0.24,0.171-0.39,0.171c-0.75,0-2.07,0-2.82,0c-0.15,0-0.29-0.061-0.39-0.171
				c-0.11-0.1-0.17-0.239-0.17-0.39c0-2.79,0-15.17,0-15.17s-3.71,0-5.14,0c-0.31,0-0.56-0.25-0.56-0.55c0-0.75,0-2.08,0-2.83
				c0-0.14,0.06-0.28,0.17-0.39c0.1-0.101,0.24-0.16,0.39-0.16c2.39,0,11.83,0,14.22,0c0.15,0,0.29,0.06,0.39,0.16
				C71.86,133.41,71.92,133.55,71.92,133.69z"/>
			<path fill="#FFFFFF" d="M63.49,53.74c0,2.2,0.01,11.45,0.01,16.38c0,0.83-0.32,1.63-0.91,2.21c-0.59,0.59-1.38,0.92-2.21,0.92
				c-2.53,0-6.09,0-8.62,0c-1.73,0-3.12-1.4-3.12-3.12c0-4.93,0-14.19,0-16.39c0-0.27,0.21-0.48,0.48-0.48c0.76,0,2.22,0,2.98,0
				c0.13,0,0.25,0.05,0.34,0.14s0.14,0.21,0.14,0.34c0,2.13,0,10.8,0,14.19c0,0.76,0.62,1.37,1.37,1.37c1.22,0,3,0,4.22,0
				c0.76,0,1.37-0.61,1.37-1.37c0-3.39,0-12.06,0-14.19c0-0.13,0.05-0.25,0.14-0.34c0.09-0.09,0.22-0.14,0.34-0.14
				c0.76,0,2.23,0,2.99,0C63.27,53.26,63.49,53.47,63.49,53.74z"/>
			<path fill="#FFFFFF" d="M63.19,27.48c0,0.75,0,2.09,0,2.84c0,0.31-0.25,0.56-0.56,0.56c-1.44,0-5.19,0-5.19,0s0,12.49,0,15.3
				c0,0.15-0.06,0.29-0.16,0.4c-0.11,0.1-0.25,0.16-0.4,0.16c-0.75,0-2.09,0-2.85,0c-0.14,0-0.29-0.06-0.39-0.16
				c-0.11-0.11-0.16-0.25-0.16-0.4c0-2.81,0-15.3,0-15.3s-3.75,0-5.19,0c-0.31,0-0.56-0.25-0.56-0.56c0-0.75,0-2.09,0-2.84
				c0-0.15,0.06-0.29,0.16-0.4c0.11-0.1,0.25-0.16,0.4-0.16c2.41,0,11.93,0,14.34,0c0.15,0,0.29,0.06,0.39,0.16
				C63.13,27.19,63.19,27.33,63.19,27.48z"/>
			<path fill="#FFFFFF" d="M51.02,119.22c0,0,2.45,4.63,3.4,6.43c0.08,0.15,0.07,0.33-0.02,0.47c-0.08,0.141-0.24,0.23-0.41,0.23
				c-0.93,0-2.41,0-3.03,0c-0.18,0-0.35-0.101-0.43-0.25c-0.67-1.28-3.63-6.88-3.63-6.88h-3.65c0,0,0,4.89,0,6.569
				c0,0.15-0.06,0.29-0.16,0.4c-0.11,0.1-0.25,0.16-0.4,0.16c-0.75,0-2.09,0-2.84,0c-0.15,0-0.29-0.061-0.4-0.16
				c-0.1-0.11-0.16-0.25-0.16-0.4c0-2.859,0-15.84,0-18.699c0-0.311,0.25-0.561,0.56-0.561c0,0,7.08,0,11.35,0
				c0.84,0,1.65,0.34,2.24,0.93c0.59,0.591,0.93,1.4,0.93,2.24c0,1.94,0,4.41,0,6.351c0,1.75-1.42,3.17-3.17,3.17H51.02z
				 M50.59,114.459v-2.38c0-0.87-0.71-1.58-1.59-1.58h-5.75v5.551H49C49.88,116.05,50.59,115.34,50.59,114.459z"/>
			<path fill="#FFFFFF" d="M50.93,145.72c0,0,2.41,4.58,3.36,6.37c0.08,0.149,0.07,0.329-0.02,0.47c-0.08,0.149-0.24,0.24-0.41,0.24
				c-0.92,0-2.38,0-3,0c-0.18,0-0.34-0.101-0.42-0.261c-0.67-1.27-3.6-6.819-3.6-6.819h-3.62c0,0,0,4.85,0,6.52
				c0,0.15-0.06,0.29-0.16,0.39c-0.11,0.11-0.25,0.171-0.39,0.171c-0.75,0-2.08,0-2.83,0c-0.14,0-0.29-0.061-0.39-0.171
				c-0.1-0.1-0.16-0.239-0.16-0.39c0-2.84,0-15.71,0-18.55c0-0.3,0.25-0.55,0.55-0.55c0,0,7.02,0,11.26,0
				c0.83,0,1.63,0.33,2.22,0.92c0.59,0.59,0.92,1.39,0.92,2.22c0,1.92,0,4.38,0,6.3c0,1.73-1.41,3.141-3.14,3.141H50.93z M50.49,141
				v-2.359c0-0.86-0.7-1.57-1.57-1.57h-5.7v5.5h5.7C49.79,142.57,50.49,141.87,50.49,141z"/>
			<path fill="#FFFFFF" d="M54.21,80.32c0,2.86,0,15.85,0,18.71c0,0.15-0.06,0.29-0.17,0.39c-0.1,0.11-0.24,0.171-0.39,0.171
				c-0.76,0-2.09,0-2.85,0c-0.15,0-0.29-0.061-0.39-0.171c-0.11-0.1-0.17-0.239-0.17-0.39c0-2.86,0-15.85,0-18.71
				c0-0.14,0.06-0.29,0.17-0.39c0.1-0.11,0.24-0.16,0.39-0.16c0.76,0,2.09,0,2.85,0c0.15,0,0.29,0.05,0.39,0.16
				C54.15,80.03,54.21,80.18,54.21,80.32z"/>
			<path fill="#FFFFFF" d="M53.01,0.91c0,2.98,0,16.46,0,19.43c0,0.16-0.06,0.3-0.17,0.41c-0.1,0.11-0.24,0.17-0.39,0.17
				c-0.76,0-2.09,0-2.85,0c-0.15,0-0.29-0.06-0.39-0.17c-0.11-0.11-0.17-0.25-0.17-0.41c0-2.97,0-16.45,0-19.43
				c0-0.15,0.06-0.3,0.17-0.41c0.1-0.11,0.24-0.17,0.39-0.17c0.76,0,2.09,0,2.85,0c0.15,0,0.29,0.06,0.39,0.17
				C52.95,0.61,53.01,0.76,53.01,0.91z"/>
			<path fill="#FFFFFF" d="M45.71,80.32c0,2.37,0,11.46,0,11.46c0,0.43-0.17,0.84-0.48,1.14c-1.28,1.24-4.78,4.641-6.58,6.391
				c-0.61,0.59-1.59,0.59-2.21,0c-1.8-1.76-5.29-5.15-6.57-6.391c-0.31-0.3-0.48-0.71-0.48-1.14c0-1.27,0-9.26,0-11.46
				c0-0.14,0.06-0.29,0.16-0.39c0.11-0.11,0.25-0.16,0.4-0.16c0.75,0,2.09,0,2.84,0c0.15,0,0.3,0.05,0.4,0.16
				c0.1,0.1,0.16,0.25,0.16,0.39c0,2.22,0,10.29,0,10.29l4.2,3.92l4.19-3.92c0,0,0-8.07,0-10.29c0-0.14,0.06-0.29,0.17-0.39
				c0.1-0.11,0.25-0.16,0.39-0.16c0.76,0,2.1,0,2.85,0c0.15,0,0.29,0.05,0.4,0.16C45.65,80.03,45.71,80.18,45.71,80.32z"/>
			<path fill="#FFFFFF" d="M44.26,46.74c-0.93,0-2.42,0-3.04,0c-0.18,0-0.34-0.1-0.42-0.26c-0.68-1.27-3.63-6.88-3.63-6.88h-3.65
				c0,0,0,4.9,0,6.58c0,0.15-0.06,0.29-0.17,0.4c-0.1,0.1-0.24,0.16-0.39,0.16c-0.76,0-2.09,0-2.85,0c-0.15,0-0.29-0.06-0.39-0.16
				c-0.11-0.11-0.17-0.25-0.17-0.4c0-2.86,0-15.84,0-18.7c0-0.31,0.25-0.56,0.56-0.56c0,0,7.08,0,11.35,0
				c0.84,0,1.65,0.33,2.24,0.93c0.6,0.59,0.93,1.4,0.93,2.24c0,1.93,0,4.41,0,6.35c0,1.75-1.42,3.16-3.17,3.16h-0.17
				c0,0,2.44,4.64,3.39,6.44c0.08,0.14,0.07,0.32-0.01,0.47C44.58,46.65,44.42,46.74,44.26,46.74z M40.85,34.85v-2.38
				c0-0.88-0.71-1.59-1.59-1.59h-5.74v5.55h5.74C40.14,36.43,40.85,35.72,40.85,34.85z"/>
			<path fill="#FFFFFF" d="M44.42,63.97c0,1.92,0,4.49,0,6.41c0,1.49-1.21,2.71-2.71,2.71c-2.68,0-6.76,0-9.45,0
				c-1.49,0-2.71-1.22-2.71-2.71c0-0.99,0-2.01,0-2.59c0-0.26,0.22-0.48,0.48-0.48c0.76,0,2.24,0,3.01,0c0.12,0,0.25,0.05,0.34,0.14
				c0.09,0.09,0.14,0.22,0.14,0.34c0,0.54,0,1.33,0,1.33s4.44,0,6.22,0c0.19,0,0.37-0.07,0.51-0.21c0.13-0.13,0.21-0.31,0.21-0.51
				c0-0.7,0-1.76,0-2.46c0-0.19-0.08-0.37-0.21-0.51c-0.14-0.13-0.32-0.21-0.51-0.21c-1.49,0-5,0-7.48,0c-0.72,0-1.4-0.28-1.91-0.79
				c-0.51-0.51-0.8-1.2-0.8-1.92c0-1.96,0-4.58,0-6.54c0-0.72,0.29-1.41,0.8-1.92c0.51-0.51,1.19-0.79,1.91-0.79
				c2.69,0,6.77,0,9.45,0c1.5,0,2.71,1.21,2.71,2.71c0,0.99,0,2.01,0,2.58c0,0.27-0.21,0.48-0.48,0.48c-0.76,0-2.24,0-3,0
				c-0.13,0-0.25-0.05-0.34-0.14c-0.09-0.09-0.14-0.21-0.14-0.34c0-0.53,0-1.33,0-1.33s-4.45,0-6.23,0c-0.4,0-0.72,0.32-0.72,0.72
				c0,0.73,0,1.86,0,2.6c0,0.4,0.32,0.72,0.72,0.72c1.5,0,5,0,7.48,0C43.21,61.26,44.42,62.47,44.42,63.97z"/>
			<path fill="#FFFFFF" d="M44.42,11.06c0,1.96,0,4.59,0,6.55c0,1.5-1.21,2.71-2.71,2.71c-2.68,0-6.76,0-9.45,0
				c-1.49,0-2.71-1.21-2.71-2.71c0-1.01,0-2.06,0-2.65c0-0.13,0.05-0.25,0.14-0.34c0.09-0.09,0.21-0.14,0.34-0.14
				c0.76,0,2.24,0,3.01,0c0.26,0,0.48,0.21,0.48,0.48c0,0.54,0,1.35,0,1.35s4.44,0,6.22,0c0.19,0,0.37-0.08,0.51-0.21
				c0.13-0.14,0.21-0.32,0.21-0.51c0-0.71,0-1.8,0-2.51c0-0.19-0.08-0.37-0.21-0.51c-0.14-0.13-0.32-0.21-0.51-0.21
				c-1.49,0-5,0-7.48,0c-1.49,0-2.71-1.21-2.71-2.71c0-2,0-4.69,0-6.69c0-1.5,1.22-2.71,2.71-2.71c2.69,0,6.77,0,9.45,0
				c1.5,0,2.71,1.21,2.71,2.71c0,1.02,0,2.06,0,2.65c0,0.13-0.05,0.25-0.14,0.34c-0.09,0.09-0.21,0.14-0.34,0.14c-0.76,0-2.24,0-3,0
				c-0.27,0-0.48-0.21-0.48-0.48c0-0.54,0-1.35,0-1.35s-4.45,0-6.23,0c-0.4,0-0.72,0.32-0.72,0.72c0,0.75,0,1.9,0,2.65
				c0,0.39,0.32,0.72,0.72,0.72c1.5,0,5,0,7.48,0C43.21,8.35,44.42,9.56,44.42,11.06z"/>
			<path fill="#FFFFFF" d="M35.76,122.95c0,0.75,0,2.09,0,2.84c0,0.15-0.06,0.29-0.16,0.4c-0.11,0.1-0.25,0.16-0.4,0.16
				c-2.35,0-11.4,0-13.75,0c-0.15,0-0.29-0.061-0.4-0.16c-0.1-0.11-0.16-0.25-0.16-0.4c0-2.859,0-15.84,0-18.699
				c0-0.15,0.06-0.29,0.16-0.391c0.11-0.109,0.25-0.17,0.4-0.17c2.33,0,11.24,0,13.57,0c0.15,0,0.29,0.061,0.4,0.17
				c0.1,0.101,0.16,0.24,0.16,0.391c0,0.75,0,2.09,0,2.85c0,0.15-0.06,0.29-0.16,0.39c-0.11,0.11-0.25,0.17-0.4,0.17
				c-2.2,0-10.16,0-10.16,0v4.16c0,0,7.63,0,9.78,0c0.31,0,0.56,0.25,0.56,0.561c0,0.67,0,1.779,0,2.449
				c0,0.311-0.25,0.561-0.56,0.561c-2.15,0-9.78,0-9.78,0v4.16c0,0,8.11,0,10.34,0c0.15,0,0.29,0.06,0.4,0.16
				C35.7,122.66,35.76,122.8,35.76,122.95z"/>
			<path fill="#FFFFFF" d="M35.63,149.419c0,0.75,0,2.07,0,2.82c0,0.15-0.05,0.29-0.16,0.39c-0.1,0.11-0.24,0.171-0.39,0.171
				c-2.33,0-11.31,0-13.64,0c-0.14,0-0.28-0.061-0.39-0.171c-0.1-0.1-0.16-0.239-0.16-0.39c0-2.84,0-15.71,0-18.55
				c0-0.14,0.06-0.28,0.16-0.39c0.11-0.101,0.25-0.16,0.39-0.16c2.31,0,11.15,0,13.46,0c0.15,0,0.29,0.06,0.39,0.16
				c0.11,0.109,0.17,0.25,0.17,0.39c0,0.75,0,2.08,0,2.83c0,0.14-0.06,0.29-0.17,0.39c-0.1,0.101-0.24,0.16-0.39,0.16
				c-2.18,0-10.08,0-10.08,0v4.13c0,0,7.57,0,9.71,0c0.3,0,0.55,0.25,0.55,0.55c0,0.67,0,1.771,0,2.431c0,0.31-0.25,0.56-0.55,0.56
				c-2.14,0-9.71,0-9.71,0v4.12c0,0,8.05,0,10.26,0c0.15,0,0.29,0.06,0.39,0.17C35.58,149.129,35.63,149.27,35.63,149.419z"/>
			<path fill="#FFFFFF" d="M24.86,80.32c0,2.86,0,15.85,0,18.71c0,0.15-0.06,0.29-0.17,0.39c-0.1,0.11-0.25,0.171-0.39,0.171
				c-0.76,0-2.09,0-2.85,0c-0.15,0-0.29-0.061-0.4-0.171c-0.1-0.1-0.16-0.239-0.16-0.39c0-2.86,0-15.85,0-18.71
				c0-0.14,0.06-0.29,0.16-0.39c0.11-0.11,0.25-0.16,0.4-0.16c0.76,0,2.09,0,2.85,0c0.14,0,0.29,0.05,0.39,0.16
				C24.8,80.03,24.86,80.18,24.86,80.32z"/>
			<path fill="#FFFFFF" d="M24.86,53.91c0,2.86,0,15.84,0,18.7c0,0.15-0.06,0.29-0.17,0.4c-0.1,0.1-0.25,0.16-0.39,0.16
				c-0.76,0-2.09,0-2.85,0c-0.15,0-0.29-0.06-0.4-0.16c-0.1-0.11-0.16-0.25-0.16-0.4c0-2.86,0-15.84,0-18.7
				c0-0.15,0.06-0.29,0.16-0.4c0.11-0.1,0.25-0.16,0.4-0.16c0.76,0,2.09,0,2.85,0c0.14,0,0.29,0.06,0.39,0.16
				C24.8,53.62,24.86,53.76,24.86,53.91z"/>
			<path fill="#FFFFFF" d="M24.86,27.4c0,2.86,0,15.84,0,18.7c0,0.15-0.06,0.29-0.17,0.4c-0.1,0.1-0.25,0.16-0.39,0.16
				c-0.76,0-2.09,0-2.85,0c-0.15,0-0.29-0.06-0.4-0.16c-0.1-0.11-0.16-0.25-0.16-0.4c0-2.86,0-15.84,0-18.7
				c0-0.15,0.06-0.29,0.16-0.4c0.11-0.1,0.25-0.16,0.4-0.16c0.76,0,2.09,0,2.85,0c0.14,0,0.29,0.06,0.39,0.16
				C24.8,27.11,24.86,27.25,24.86,27.4z"/>
			<path fill="#FFFFFF" d="M24.86,0.81c0,2.86,0,15.84,0,18.7c0,0.15-0.06,0.29-0.17,0.4c-0.1,0.1-0.25,0.16-0.39,0.16
				c-0.76,0-2.09,0-2.85,0c-0.15,0-0.29-0.06-0.4-0.16c-0.1-0.11-0.16-0.25-0.16-0.4c0-2.86,0-15.84,0-18.7
				c0-0.15,0.06-0.29,0.16-0.4c0.11-0.1,0.25-0.16,0.4-0.16c0.76,0,2.09,0,2.85,0c0.14,0,0.29,0.06,0.39,0.16
				C24.8,0.52,24.86,0.66,24.86,0.81z"/>
			<path fill="#FF8F09" d="M16.89,106.919c0,2.37,0,11.46,0,11.46c0,0.431-0.18,0.841-0.49,1.141c-1.27,1.24-4.77,4.63-6.57,6.38
				c-0.62,0.6-1.6,0.6-2.21,0c-1.8-1.75-5.3-5.14-6.57-6.38c-0.31-0.3-0.48-0.71-0.48-1.141c0-1.27,0-9.26,0-11.46
				c0-0.149,0.06-0.29,0.16-0.39c0.1-0.11,0.25-0.17,0.4-0.17c0.75,0,2.09,0,2.84,0c0.15,0,0.29,0.06,0.4,0.17
				c0.1,0.1,0.16,0.24,0.16,0.39c0,2.221,0,10.29,0,10.29l4.19,3.92l4.2-3.92c0,0,0-8.069,0-10.29c0-0.149,0.06-0.29,0.16-0.39
				c0.11-0.11,0.25-0.17,0.4-0.17c0.75,0,2.09,0,2.85,0c0.15,0,0.29,0.06,0.39,0.17C16.83,106.629,16.89,106.77,16.89,106.919z"/>
			<path fill="#FF8F09" d="M16.89,80.32c0,2.37,0,11.46,0,11.46c0,0.43-0.18,0.84-0.49,1.14c-1.27,1.24-4.77,4.641-6.57,6.391
				c-0.62,0.59-1.6,0.59-2.21,0c-1.8-1.76-5.3-5.15-6.57-6.391c-0.31-0.3-0.48-0.71-0.48-1.14c0-1.27,0-9.26,0-11.46
				c0-0.14,0.06-0.29,0.16-0.39c0.1-0.11,0.25-0.16,0.4-0.16c0.75,0,2.09,0,2.84,0c0.15,0,0.29,0.05,0.4,0.16
				c0.1,0.1,0.16,0.25,0.16,0.39c0,2.22,0,10.29,0,10.29l4.19,3.92l4.2-3.92c0,0,0-8.07,0-10.29c0-0.14,0.06-0.29,0.16-0.39
				c0.11-0.11,0.25-0.16,0.4-0.16c0.75,0,2.09,0,2.85,0c0.15,0,0.29,0.05,0.39,0.16C16.83,80.03,16.89,80.18,16.89,80.32z"/>
			<path fill="#FF8F09" d="M16.89,53.99c0,2.37,0,11.46,0,11.46c0,0.43-0.18,0.84-0.49,1.14c-1.27,1.24-4.77,4.63-6.57,6.38
				c-0.62,0.6-1.6,0.6-2.21,0c-1.8-1.75-5.3-5.15-6.57-6.39c-0.31-0.29-0.48-0.7-0.48-1.13c0-1.27,0-9.26,0-11.46
				c0-0.15,0.06-0.29,0.16-0.39c0.1-0.11,0.25-0.17,0.4-0.17c0.75,0,2.09,0,2.84,0c0.15,0,0.29,0.06,0.4,0.17
				c0.1,0.1,0.16,0.24,0.16,0.39c0,2.22,0,10.29,0,10.29l4.19,3.92l4.2-3.93c0,0,0-8.06,0-10.28c0-0.15,0.06-0.29,0.16-0.39
				c0.11-0.11,0.25-0.17,0.4-0.17c0.75,0,2.09,0,2.85,0c0.15,0,0.29,0.06,0.39,0.17C16.83,53.7,16.89,53.84,16.89,53.99z"/>
			<path fill="#FF8F09" d="M16.89,27.48c0,2.37,0,11.46,0,11.46c0,0.43-0.18,0.84-0.49,1.14c-1.27,1.24-4.77,4.64-6.57,6.39
				c-0.62,0.59-1.6,0.59-2.21-0.01c-1.8-1.75-5.3-5.14-6.57-6.38c-0.31-0.3-0.48-0.71-0.48-1.14c0-1.27,0-9.26,0-11.46
				c0-0.14,0.06-0.29,0.16-0.39c0.1-0.11,0.25-0.17,0.4-0.17c0.75,0,2.09,0,2.84,0c0.15,0,0.29,0.06,0.4,0.17
				c0.1,0.1,0.16,0.25,0.16,0.39c0,2.22,0,10.29,0,10.29l4.19,3.92l4.2-3.92c0,0,0-8.07,0-10.29c0-0.14,0.06-0.29,0.16-0.39
				c0.11-0.11,0.25-0.17,0.4-0.17c0.75,0,2.09,0,2.85,0c0.15,0,0.29,0.06,0.39,0.17C16.83,27.19,16.89,27.34,16.89,27.48z"/>
			<path fill="#FF8F09" d="M16.89,0.89c0,2.37,0,11.46,0,11.46c0,0.43-0.18,0.84-0.49,1.14c-1.27,1.24-4.77,4.63-6.57,6.38
				c-0.62,0.6-1.6,0.6-2.21,0c-1.8-1.75-5.3-5.14-6.57-6.38c-0.31-0.3-0.48-0.71-0.48-1.14c0-1.27,0-9.26,0-11.46
				c0-0.15,0.06-0.29,0.16-0.39c0.1-0.11,0.25-0.17,0.4-0.17c0.75,0,2.09,0,2.84,0c0.15,0,0.29,0.06,0.4,0.17
				c0.1,0.1,0.16,0.24,0.16,0.39c0,2.22,0,10.29,0,10.29l4.19,3.92l4.2-3.92c0,0,0-8.07,0-10.29c0-0.15,0.06-0.29,0.16-0.39
				c0.11-0.11,0.25-0.17,0.4-0.17c0.75,0,2.09,0,2.85,0c0.15,0,0.29,0.06,0.39,0.17C16.83,0.6,16.89,0.74,16.89,0.89z"/>
			<path fill="#FF8F09" d="M16.43,133.69c0,2.35,0,11.37,0,11.37c0,0.42-0.17,0.83-0.48,1.12c-1.26,1.229-4.73,4.6-6.52,6.34
				c-0.61,0.59-1.58,0.59-2.19,0c-1.78-1.74-5.25-5.11-6.51-6.34c-0.31-0.29-0.48-0.7-0.48-1.12c0-1.271,0-9.19,0-11.37
				c0-0.14,0.06-0.28,0.16-0.39c0.11-0.101,0.25-0.16,0.39-0.16c0.75,0,2.08,0,2.83,0c0.14,0,0.29,0.06,0.39,0.16
				c0.1,0.109,0.16,0.25,0.16,0.39c0,2.2,0,10.2,0,10.2l4.16,3.89l4.16-3.89c0,0,0-8,0-10.2c0-0.14,0.06-0.28,0.16-0.39
				c0.11-0.101,0.25-0.16,0.39-0.16c0.75,0,2.08,0,2.83,0c0.14,0,0.29,0.06,0.39,0.16C16.37,133.41,16.43,133.55,16.43,133.69z"/>
		</g>
		<g>
		</g>
	</g>
</g>
</svg>
