<svg xmlns:dc="http://purl.org/dc/elements/1.1/" xmlns:cc="http://creativecommons.org/ns#" xmlns:rdf="http://www.w3.org/1999/02/22-rdf-syntax-ns#" xmlns:svg="http://www.w3.org/2000/svg" xmlns="http://www.w3.org/2000/svg" xmlns:sodipodi="http://sodipodi.sourceforge.net/DTD/sodipodi-0.dtd" xmlns:inkscape="http://www.inkscape.org/namespaces/inkscape" width="21" height="22" version="1.1" inkscape:version="0.92.1 r15371" sodipodi:docname="linkedin.svg"><rect id="backgroundrect" width="100%" height="100%" x="0" y="0" fill="none" stroke="none"/>
  <defs id="defs47"/>
  <sodipodi:namedview id="base" pagecolor="#ffffff" bordercolor="#666666" borderopacity="1.0" inkscape:pageopacity="0.0" inkscape:pageshadow="2" inkscape:zoom="1.979899" inkscape:cx="-142.68259" inkscape:cy="928.01598" inkscape:document-units="mm" inkscape:current-layer="layer1" showgrid="false" inkscape:window-width="1920" inkscape:window-height="1017" inkscape:window-x="-8" inkscape:window-y="-8" inkscape:window-maximized="1"/>
  <metadata id="metadata50">
    <rdf:RDF>
      <cc:Work rdf:about="">
        <dc:format>image/svg+xml</dc:format>
        <dc:type rdf:resource="http://purl.org/dc/dcmitype/StillImage"/>
        <dc:title/>
      </cc:Work>
    </rdf:RDF>
  </metadata>
  
<g class="currentLayer"><title>Layer 1</title><g inkscape:label="Taso 1" inkscape:groupmode="layer" id="layer1" class="">
    <path d="m-0.0000019545898410910922,1.5414800087890654 c0,-0.8511080000000001 0.707453,-1.541479 1.5801790000000002,-1.541479 h18.222859 c0.8727000000000001,0 1.58018,0.6903710000000002 1.58018,1.541479 v18.435921 c0,0.8513930000000001 -0.70748,1.5414780000000001 -1.58018,1.5414780000000001 H1.580177045410153 c-0.8727260000000001,0 -1.5801790000000002,-0.6900850000000002 -1.5801790000000002,-1.5414780000000001 z" style="fill:#006699;fill-opacity:1;fill-rule:nonzero;stroke:none;stroke-width:0.28753564" id="path14" inkscape:connector-curvature="0"/>
    <path d="m6.481914045410157,18.013532008789056 v-9.716978000000001 h-3.229746 v9.716978000000001 zM4.867028045410159,6.969865008789057 c1.126276,0 1.827287,-0.7461550000000001 1.827287,-1.678633 c-0.021000000000000005,-0.953469 -0.701011,-1.678922 -1.805924,-1.678922 c-1.104798,0 -1.8271450000000002,0.725453 -1.8271450000000002,1.678922 c0,0.932478 0.7008690000000001,1.678633 1.784734,1.678633 h0.021000000000000005 z" style="fill:#ffffff;fill-opacity:1;fill-rule:evenodd;stroke:none;stroke-width:0.28753564" id="path28" inkscape:connector-curvature="0"/>
    <path d="m8.269033045410154,18.013532008789056 h3.229717 v-5.426372 c0,-0.29041100000000003 0.021000000000000005,-0.580534 0.10627300000000002,-0.788135 c0.23347800000000002,-0.5802470000000001 0.7649000000000001,-1.181196 1.657124,-1.181196 c1.16869,0 1.636193,0.8910730000000001 1.636193,2.197347 v5.198356 h3.229457 v-5.571577 c0,-2.98462 -1.59338,-4.373417 -3.718296,-4.373417 c-1.74235,0 -2.507254,0.9738829999999999 -2.93223,1.6372280000000001 h0.021570000000000006 V8.296554008789059 H8.269119045410157 c0.04238000000000001,0.9117750000000001 0,9.716978000000001 0,9.716978000000001 z" style="fill:#ffffff;fill-opacity:1;fill-rule:evenodd;stroke:none;stroke-width:0.28753564" id="path30" inkscape:connector-curvature="0"/>
  </g></g></svg>