<?xml version="1.0" encoding="UTF-8" standalone="no"?>
<!-- Generator: Adobe Illustrator 12.0.0, SVG Export Plug-In . SVG Version: 6.00 Build 51448)  -->

<svg
   xmlns:dc="http://purl.org/dc/elements/1.1/"
   xmlns:cc="http://creativecommons.org/ns#"
   xmlns:rdf="http://www.w3.org/1999/02/22-rdf-syntax-ns#"
   xmlns:svg="http://www.w3.org/2000/svg"
   xmlns="http://www.w3.org/2000/svg"
   xmlns:sodipodi="http://sodipodi.sourceforge.net/DTD/sodipodi-0.dtd"
   xmlns:inkscape="http://www.inkscape.org/namespaces/inkscape"
   version="1.1"
   id="Layer_1"
   width="100.943"
   height="17.170626"
   viewBox="0 0 100.943 17.170626"
   overflow="visible"
   enable-background="new 0 0 100.942 27.271"
   xml:space="preserve"
   sodipodi:docname="logowithslog.svg"
   inkscape:version="0.92.1 r15371"
   style="overflow:visible"><metadata
     id="metadata35"><rdf:RDF><cc:Work
         rdf:about=""><dc:format>image/svg+xml</dc:format><dc:type
           rdf:resource="http://purl.org/dc/dcmitype/StillImage" /><dc:title></dc:title></cc:Work></rdf:RDF></metadata><defs
     id="defs33" /><sodipodi:namedview
     pagecolor="#ffffff"
     bordercolor="#666666"
     borderopacity="1"
     objecttolerance="10"
     gridtolerance="10"
     guidetolerance="10"
     inkscape:pageopacity="0"
     inkscape:pageshadow="2"
     inkscape:window-width="1920"
     inkscape:window-height="1017"
     id="namedview31"
     showgrid="false"
     inkscape:pagecheckerboard="true"
     inkscape:zoom="7.4300092"
     inkscape:cx="20.998597"
     inkscape:cy="-4.6205943"
     inkscape:window-x="-8"
     inkscape:window-y="-8"
     inkscape:window-maximized="1"
     inkscape:current-layer="g28"
     fit-margin-top="0"
     fit-margin-left="0"
     fit-margin-right="0"
     fit-margin-bottom="0" /><g
     id="g28"><path
       d="M 68.347,0.48 C 68.347,0.352 68.296,0.23 68.206,0.14 68.116,0.05 67.994,0 67.867,0 67.218,0 66.07,0 65.421,0 65.294,0 65.172,0.05 65.082,0.14 64.992,0.23 64.94,0.352 64.94,0.48 c 0,2.457 0,13.609 0,16.067 0,0.127 0.052,0.249 0.142,0.34 0.09,0.09 0.212,0.141 0.339,0.141 0.649,0 1.797,0 2.446,0 0.127,0 0.249,-0.051 0.339,-0.141 0.09,-0.091 0.141,-0.213 0.141,-0.34 0,-2.458 0,-13.61 0,-16.067 z"
       id="path2"
       inkscape:connector-curvature="0"
       style="clip-rule:evenodd;fill:#ffffff;fill-rule:evenodd" /><path
       d="m 30.291,2.925 c 0,0.127 -0.051,0.25 -0.141,0.34 -0.09,0.09 -0.212,0.14 -0.339,0.14 -1.893,0 -8.732,0 -8.732,0 v 3.576 c 0,0 6.559,0 8.408,0 0.265,0 0.48,0.215 0.48,0.48 0,0.574 0,1.53 0,2.105 0,0.265 -0.215,0.48 -0.48,0.48 -1.849,0 -8.408,0 -8.408,0 v 3.575 c 0,0 6.974,0 8.887,0 0.127,0 0.249,0.051 0.339,0.141 0.09,0.09 0.141,0.212 0.141,0.339 0,0.649 0,1.798 0,2.446 0,0.127 -0.051,0.249 -0.141,0.34 -0.09,0.09 -0.212,0.141 -0.339,0.141 -2.017,0 -9.795,0 -11.812,0 -0.128,0 -0.25,-0.051 -0.34,-0.141 -0.09,-0.091 -0.14,-0.213 -0.14,-0.34 0,-2.458 0,-13.61 0,-16.067 0,-0.128 0.05,-0.25 0.14,-0.34 0.09,-0.09 0.212,-0.14 0.34,-0.14 1.999,0 9.657,0 11.657,0 0.127,0 0.249,0.05 0.339,0.14 0.09,0.09 0.141,0.212 0.141,0.34 0,0.648 0,1.797 0,2.445 z"
       id="path4"
       inkscape:connector-curvature="0"
       style="clip-rule:evenodd;fill:#ffffff;fill-rule:evenodd" /><path
       d="m 61.876,2.925 c 0,0.265 -0.215,0.48 -0.48,0.48 -1.239,0 -4.458,0 -4.458,0 0,0 0,10.725 0,13.142 0,0.127 -0.05,0.249 -0.14,0.34 -0.09,0.09 -0.212,0.141 -0.34,0.141 -0.648,0 -1.797,0 -2.445,0 -0.127,0 -0.249,-0.051 -0.339,-0.141 -0.09,-0.091 -0.141,-0.213 -0.141,-0.34 0,-2.417 0,-13.142 0,-13.142 0,0 -3.217,0 -4.458,0 -0.265,0 -0.48,-0.215 -0.48,-0.48 0,-0.648 0,-1.797 0,-2.445 0,-0.128 0.051,-0.25 0.141,-0.34 C 48.826,0.05 48.948,0 49.075,0 c 2.073,0 10.248,0 12.32,0 0.129,0 0.25,0.05 0.341,0.14 0.09,0.09 0.14,0.212 0.14,0.34 0,0.648 0,1.797 0,2.445 z"
       id="path6"
       inkscape:connector-curvature="0"
       style="clip-rule:evenodd;fill:#ffffff;fill-rule:evenodd" /><path
       d="m 100.942,14.303 c 0,1.504 -1.221,2.724 -2.725,2.724 -2.16,0 -5.164,0 -7.324,0 -1.505,0 -2.724,-1.22 -2.724,-2.724 0,-3.178 0,-8.401 0,-11.579 C 88.17,1.219 89.389,0 90.894,0 c 2.16,0 5.164,0 7.324,0 1.504,0 2.725,1.219 2.725,2.724 -0.001,3.178 -0.001,8.401 -0.001,11.579 z M 92.937,3.405 c -0.752,0 -1.361,0.61 -1.361,1.362 0,1.956 0,5.537 0,7.492 0,0.753 0.609,1.362 1.361,1.362 0.971,0 2.269,0 3.237,0 0.753,0 1.363,-0.609 1.363,-1.362 0,-1.955 0,-5.536 0,-7.492 0,-0.752 -0.61,-1.362 -1.363,-1.362 -0.969,0 -2.267,0 -3.237,0 z"
       id="path8"
       inkscape:connector-curvature="0"
       style="clip-rule:evenodd;fill:#ffffff;fill-rule:evenodd" /><path
       d="m 78.942,11.043 c -0.127,0 -0.249,-0.051 -0.34,-0.141 -0.09,-0.09 -0.141,-0.212 -0.141,-0.339 0,-0.699 0,-1.914 0,-1.914 0,-0.265 0.215,-0.479 0.479,-0.48 1.2,-0.003 4.323,-0.009 5.525,-0.012 0.128,0 0.25,0.05 0.34,0.14 0.09,0.09 0.142,0.213 0.142,0.34 0,1.454 0,5.702 0,5.702 0,0.713 -0.283,1.396 -0.787,1.901 -0.504,0.504 -1.188,0.787 -1.901,0.787 -0.419,0 -0.717,0 -0.717,0 H 75.58 c 0,0 -0.298,0 -0.717,0 -0.713,0 -1.397,-0.283 -1.901,-0.787 -0.504,-0.505 -0.787,-1.188 -0.787,-1.901 0,-3.187 0,-8.465 0,-11.651 0,-0.713 0.283,-1.397 0.787,-1.901 C 73.466,0.283 74.15,0 74.863,0 c 2.174,0 5.222,0 7.396,0 0.713,0 1.397,0.283 1.901,0.787 0.504,0.504 0.787,1.188 0.787,1.901 0,0 0,1.582 0,2.401 0,0.128 -0.052,0.25 -0.142,0.34 -0.09,0.09 -0.212,0.14 -0.339,0.14 -0.647,0 -1.797,0 -2.445,0 -0.265,0 -0.479,-0.215 -0.479,-0.48 0,-0.42 0,-0.964 0,-0.964 0,-0.191 -0.076,-0.374 -0.211,-0.509 -0.135,-0.135 -0.318,-0.211 -0.509,-0.211 -0.964,0 -2.691,0 -3.898,0 -0.742,0 -1.344,0.602 -1.344,1.344 0,1.957 0,5.572 0,7.529 0,0.742 0.602,1.343 1.344,1.343 1.207,0 2.935,0 3.898,0 0.19,0 0.374,-0.075 0.509,-0.21 0.135,-0.135 0.211,-0.319 0.211,-0.51 v -1.858 c 0,0 -1.734,0 -2.6,0 z"
       id="path10"
       inkscape:connector-curvature="0"
       style="clip-rule:evenodd;fill:#ffffff;fill-rule:evenodd" /><path
       d="m 40.152,10.897 h -3.135 c 0,0 0,4.206 0,5.65 0,0.127 -0.051,0.249 -0.141,0.34 -0.09,0.09 -0.212,0.141 -0.339,0.141 -0.649,0 -1.798,0 -2.446,0 -0.127,0 -0.249,-0.051 -0.339,-0.141 -0.09,-0.091 -0.141,-0.213 -0.141,-0.34 0,-2.458 0,-13.61 0,-16.067 0,-0.265 0.215,-0.48 0.48,-0.48 0,0 6.082,0 9.752,0 0.722,0 1.414,0.286 1.924,0.797 0.51,0.51 0.797,1.202 0.797,1.924 0,1.665 0,3.789 0,5.455 0,1.503 -1.218,2.721 -2.721,2.721 h -0.151 c 0,0 2.013,3.815 2.863,5.425 0.078,0.15 0.073,0.328 -0.014,0.473 -0.087,0.145 -0.243,0.232 -0.411,0.232 -0.779,0 -1.925,0 -2.455,0 -0.178,0 -0.342,-0.1 -0.425,-0.256 -0.612,-1.161 -3.098,-5.874 -3.098,-5.874 z m 3.165,-6.13 c 0,-0.752 -0.61,-1.362 -1.363,-1.362 h -4.937 v 4.768 h 4.937 c 0.753,0 1.363,-0.61 1.363,-1.362 z"
       id="path12"
       inkscape:connector-curvature="0"
       style="clip-rule:evenodd;fill:#ffffff;fill-rule:evenodd" /><path
       d="m 10.613,9.314 c 0,0 0,-6.929 0,-8.834 0,-0.128 0.051,-0.25 0.141,-0.34 C 10.844,0.05 10.966,0 11.093,0 c 0.648,0 1.797,0 2.446,0 0.127,0 0.249,0.05 0.339,0.14 0.09,0.09 0.141,0.212 0.141,0.34 0,2.034 0,9.843 0,9.843 0,0.368 -0.149,0.72 -0.414,0.977 -1.096,1.065 -4.101,3.983 -5.649,5.486 C 7.427,17.299 6.586,17.299 6.057,16.785 4.51,15.282 1.508,12.363 0.412,11.298 0.148,11.042 0,10.689 0,10.322 0,9.23 0,2.367 0,0.48 0,0.352 0.05,0.23 0.14,0.14 0.23,0.05 0.352,0 0.48,0 c 0.648,0 1.797,0 2.445,0 0.127,0 0.249,0.05 0.339,0.14 0.09,0.09 0.141,0.212 0.141,0.34 0,1.906 0,8.836 0,8.836 l 3.601,3.37 z"
       id="path14"
       inkscape:connector-curvature="0"
       style="clip-rule:evenodd;fill:#ff8f09;fill-rule:evenodd" /></g></svg>