<?xml version="1.0" encoding="UTF-8" standalone="no"?>
<!-- Generator: Adobe Illustrator 12.0.0, SVG Export Plug-In . SVG Version: 6.00 Build 51448)  -->

<svg
   xmlns:dc="http://purl.org/dc/elements/1.1/"
   xmlns:cc="http://creativecommons.org/ns#"
   xmlns:rdf="http://www.w3.org/1999/02/22-rdf-syntax-ns#"
   xmlns:svg="http://www.w3.org/2000/svg"
   xmlns="http://www.w3.org/2000/svg"
   xmlns:sodipodi="http://sodipodi.sourceforge.net/DTD/sodipodi-0.dtd"
   xmlns:inkscape="http://www.inkscape.org/namespaces/inkscape"
   version="1.1"
   id="Layer_1"
   width="100.942"
   height="17.171"
   viewBox="0 0 100.942 17.171"
   overflow="visible"
   enable-background="new 0 0 100.942 17.171"
   xml:space="preserve"
   sodipodi:docname="logo.svg"
   inkscape:export-filename="C:\Users\mikae\Documents\m1ksuSites\Vertigo-VR\img\logo.png"
   inkscape:export-xdpi="96"
   inkscape:export-ydpi="96"
   inkscape:version="0.92.1 r15371"><metadata
     id="metadata23"><rdf:RDF><cc:Work
         rdf:about=""><dc:format>image/svg+xml</dc:format><dc:type
           rdf:resource="http://purl.org/dc/dcmitype/StillImage" /><dc:title></dc:title></cc:Work></rdf:RDF></metadata><defs
     id="defs21" /><sodipodi:namedview
     pagecolor="#ffffff"
     bordercolor="#666666"
     borderopacity="1"
     objecttolerance="10"
     gridtolerance="10"
     guidetolerance="10"
     inkscape:pageopacity="0"
     inkscape:pageshadow="2"
     inkscape:window-width="1920"
     inkscape:window-height="1017"
     id="namedview19"
     showgrid="false"
     inkscape:pagecheckerboard="true"
     inkscape:zoom="7.4300092"
     inkscape:cx="9.2356154"
     inkscape:cy="18.954665"
     inkscape:window-x="-8"
     inkscape:window-y="-8"
     inkscape:window-maximized="1"
     inkscape:current-layer="g16" /><g
     id="g16"><path
       fill-rule="evenodd"
       clip-rule="evenodd"
       fill="#FF8F09"
       d="M10.613,9.314c0,0,0-6.929,0-8.834c0-0.128,0.051-0.25,0.141-0.34   C10.844,0.05,10.966,0,11.093,0c0.648,0,1.797,0,2.446,0c0.127,0,0.249,0.05,0.339,0.14c0.09,0.09,0.141,0.212,0.141,0.34   c0,2.034,0,9.843,0,9.843c0,0.368-0.149,0.72-0.414,0.977c-1.096,1.065-4.101,3.983-5.649,5.486   c-0.529,0.513-1.37,0.513-1.899-0.001c-1.547-1.503-4.549-4.422-5.645-5.487C0.148,11.042,0,10.689,0,10.322C0,9.23,0,2.367,0,0.48   c0-0.128,0.05-0.25,0.14-0.34C0.23,0.05,0.352,0,0.48,0c0.648,0,1.797,0,2.445,0c0.127,0,0.249,0.05,0.339,0.14   c0.09,0.09,0.141,0.212,0.141,0.34c0,1.906,0,8.836,0,8.836l3.601,3.37L10.613,9.314L10.613,9.314z"
       id="path14" /></g></svg>