<?xml version="1.0" encoding="utf-8"?>
<!-- Generator: Adobe Illustrator 12.0.0, SVG Export Plug-In . SVG Version: 6.00 Build 51448)  -->
<!DOCTYPE svg PUBLIC "-//W3C//DTD SVG 1.1//EN" "http://www.w3.org/Graphics/SVG/1.1/DTD/svg11.dtd" [
	<!ENTITY ns_svg "http://www.w3.org/2000/svg">
	<!ENTITY ns_xlink "http://www.w3.org/1999/xlink">
]>
<svg  version="1.1" id="Layer_1" xmlns="&ns_svg;" xmlns:xlink="&ns_xlink;" width="100.942" height="17.171"
	 viewBox="0 0 100.942 17.171" overflow="visible" enable-background="new 0 0 100.942 17.171" xml:space="preserve">
<g>
	<path fill-rule="evenodd" clip-rule="evenodd" fill="#00364F" d="M68.347,0.48c0-0.128-0.051-0.25-0.141-0.34
		C68.116,0.05,67.994,0,67.867,0c-0.649,0-1.797,0-2.446,0c-0.127,0-0.249,0.05-0.339,0.14c-0.09,0.09-0.142,0.212-0.142,0.34
		c0,2.457,0,13.609,0,16.067c0,0.127,0.052,0.249,0.142,0.339s0.212,0.141,0.339,0.141c0.649,0,1.797,0,2.446,0
		c0.127,0,0.249-0.051,0.339-0.141s0.141-0.212,0.141-0.339C68.347,14.089,68.347,2.937,68.347,0.48L68.347,0.48z"/>
	<path fill-rule="evenodd" clip-rule="evenodd" fill="#00364F" d="M30.291,2.925c0,0.127-0.051,0.25-0.141,0.34
		c-0.09,0.09-0.212,0.14-0.339,0.14c-1.893,0-8.732,0-8.732,0v3.576c0,0,6.559,0,8.408,0c0.265,0,0.48,0.215,0.48,0.48
		c0,0.574,0,1.53,0,2.105c0,0.265-0.215,0.48-0.48,0.48c-1.849,0-8.408,0-8.408,0v3.575c0,0,6.974,0,8.887,0
		c0.127,0,0.249,0.051,0.339,0.141c0.09,0.09,0.141,0.212,0.141,0.339c0,0.649,0,1.798,0,2.446c0,0.127-0.051,0.249-0.141,0.339
		c-0.09,0.09-0.212,0.141-0.339,0.141c-2.017,0-9.795,0-11.812,0c-0.128,0-0.25-0.051-0.34-0.141s-0.14-0.212-0.14-0.339
		c0-2.458,0-13.61,0-16.067c0-0.128,0.05-0.25,0.14-0.34C17.904,0.05,18.026,0,18.154,0c1.999,0,9.657,0,11.657,0
		c0.127,0,0.249,0.05,0.339,0.14c0.09,0.09,0.141,0.212,0.141,0.34C30.291,1.128,30.291,2.277,30.291,2.925L30.291,2.925z"/>
	<path fill-rule="evenodd" clip-rule="evenodd" fill="#00364F" d="M61.875,2.925c0,0.265-0.214,0.48-0.479,0.48
		c-1.24,0-4.458,0-4.458,0s0,10.725,0,13.142c0,0.127-0.05,0.249-0.14,0.339s-0.212,0.141-0.34,0.141c-0.648,0-1.797,0-2.445,0
		c-0.127,0-0.249-0.051-0.339-0.141s-0.141-0.212-0.141-0.339c0-2.417,0-13.142,0-13.142s-3.217,0-4.458,0
		c-0.265,0-0.48-0.215-0.48-0.48c0-0.648,0-1.797,0-2.445c0-0.128,0.051-0.25,0.141-0.34C48.826,0.05,48.948,0,49.075,0
		c2.073,0,10.248,0,12.32,0c0.129,0,0.25,0.05,0.34,0.14c0.091,0.09,0.14,0.212,0.14,0.34C61.875,1.128,61.875,2.277,61.875,2.925
		L61.875,2.925z"/>
	<path fill-rule="evenodd" clip-rule="evenodd" fill="#00364F" d="M100.942,14.303c0,1.504-1.221,2.723-2.725,2.723
		c-2.16,0-5.164,0-7.324,0c-1.505,0-2.724-1.219-2.724-2.723c0-3.178,0-8.401,0-11.579C88.17,1.219,89.389,0,90.894,0
		c2.16,0,5.164,0,7.324,0c1.504,0,2.725,1.219,2.725,2.724C100.942,5.902,100.942,11.125,100.942,14.303L100.942,14.303z
		 M92.937,3.405c-0.752,0-1.361,0.611-1.361,1.363c0,1.955,0,5.536,0,7.491c0,0.753,0.609,1.362,1.361,1.362
		c0.971,0,2.269,0,3.237,0c0.753,0,1.363-0.609,1.363-1.362c0-1.955,0-5.536,0-7.491c0-0.752-0.61-1.363-1.363-1.363
		C95.205,3.405,93.907,3.405,92.937,3.405L92.937,3.405z"/>
	<path fill-rule="evenodd" clip-rule="evenodd" fill="#FF8F09" d="M10.613,9.314c0,0,0-6.929,0-8.834c0-0.128,0.051-0.25,0.141-0.34
		C10.844,0.05,10.966,0,11.093,0c0.648,0,1.797,0,2.446,0c0.127,0,0.249,0.05,0.339,0.14c0.09,0.09,0.141,0.212,0.141,0.34
		c0,2.034,0,9.843,0,9.843c0,0.368-0.149,0.72-0.414,0.977c-1.096,1.065-4.101,3.982-5.649,5.486
		C7.427,17.3,6.586,17.3,6.057,16.785c-1.547-1.503-4.549-4.422-5.645-5.487C0.148,11.042,0,10.689,0,10.322C0,9.23,0,2.367,0,0.48
		c0-0.128,0.05-0.25,0.14-0.34C0.23,0.05,0.352,0,0.48,0c0.648,0,1.797,0,2.445,0c0.127,0,0.249,0.05,0.339,0.14
		c0.09,0.09,0.141,0.212,0.141,0.34c0,1.906,0,8.836,0,8.836l3.601,3.37L10.613,9.314L10.613,9.314z"/>
	<path fill-rule="evenodd" clip-rule="evenodd" fill="#00364F" d="M78.942,11.043c-0.127,0-0.249-0.051-0.34-0.141
		c-0.09-0.09-0.141-0.212-0.141-0.339c0-0.699,0-1.914,0-1.914c0-0.265,0.215-0.479,0.479-0.48c1.2-0.003,4.323-0.009,5.525-0.012
		c0.128,0,0.25,0.05,0.34,0.14c0.09,0.09,0.142,0.213,0.142,0.34c0,1.454,0,5.702,0,5.702c0,0.713-0.283,1.396-0.787,1.9
		c-0.504,0.505-1.188,0.787-1.901,0.787c-0.419,0-0.717,0-0.717,0H75.58c0,0-0.298,0-0.717,0c-0.713,0-1.397-0.282-1.901-0.787
		c-0.504-0.504-0.787-1.187-0.787-1.9c0-3.187,0-8.465,0-11.651c0-0.713,0.283-1.397,0.787-1.901C73.466,0.283,74.15,0,74.863,0
		c2.174,0,5.222,0,7.396,0c0.713,0,1.397,0.283,1.901,0.787c0.504,0.504,0.787,1.188,0.787,1.901c0,0,0,1.582,0,2.401
		c0,0.128-0.052,0.25-0.142,0.341c-0.09,0.089-0.212,0.14-0.339,0.14c-0.647,0-1.797,0-2.445,0c-0.265,0-0.479-0.216-0.479-0.481
		c0-0.42,0-0.963,0-0.963c0-0.192-0.076-0.375-0.211-0.51c-0.135-0.135-0.318-0.211-0.509-0.211c-0.964,0-2.691,0-3.898,0
		c-0.742,0-1.344,0.602-1.344,1.344c0,1.957,0,5.572,0,7.529c0,0.742,0.602,1.343,1.344,1.343c1.207,0,2.935,0,3.898,0
		c0.19,0,0.374-0.075,0.509-0.21c0.135-0.135,0.211-0.319,0.211-0.51v-1.858C81.542,11.043,79.808,11.043,78.942,11.043
		L78.942,11.043z"/>
	<path fill-rule="evenodd" clip-rule="evenodd" fill="#00364F" d="M40.152,10.897h-3.135c0,0,0,4.206,0,5.65
		c0,0.127-0.051,0.249-0.141,0.339s-0.212,0.141-0.339,0.141c-0.649,0-1.798,0-2.446,0c-0.127,0-0.249-0.051-0.339-0.141
		s-0.141-0.212-0.141-0.339c0-2.458,0-13.61,0-16.067c0-0.265,0.215-0.48,0.48-0.48c0,0,6.082,0,9.752,0
		c0.722,0,1.414,0.286,1.924,0.797c0.51,0.51,0.797,1.202,0.797,1.924c0,1.665,0,3.789,0,5.455c0,1.503-1.218,2.721-2.721,2.721
		h-0.151c0,0,2.013,3.815,2.863,5.426c0.078,0.148,0.073,0.328-0.014,0.472s-0.243,0.231-0.411,0.231c-0.779,0-1.925,0-2.455,0
		c-0.178,0-0.342-0.098-0.425-0.256C42.638,15.61,40.152,10.897,40.152,10.897L40.152,10.897z M43.317,4.768
		c0-0.752-0.61-1.363-1.363-1.363h-4.937v4.768h4.937c0.753,0,1.363-0.61,1.363-1.362V4.768L43.317,4.768z"/>
</g>
</svg>
