<?xml version="1.0" encoding="utf-8"?>
<!-- Generator: Adobe Illustrator 12.0.0, SVG Export Plug-In . SVG Version: 6.00 Build 51448)  -->
<!DOCTYPE svg PUBLIC "-//W3C//DTD SVG 1.1//EN" "http://www.w3.org/Graphics/SVG/1.1/DTD/svg11.dtd" [
	<!ENTITY ns_svg "http://www.w3.org/2000/svg">
	<!ENTITY ns_xlink "http://www.w3.org/1999/xlink">
]>
<svg  version="1.1" id="Layer_1" xmlns="&ns_svg;" xmlns:xlink="&ns_xlink;" width="100.942" height="27.271"
	 viewBox="0 0 100.942 27.271" overflow="visible" enable-background="new 0 0 100.942 27.271" xml:space="preserve">
<g>
	<path fill-rule="evenodd" clip-rule="evenodd" fill="#FFFFFF" d="M68.347,0.48c0-0.128-0.051-0.25-0.141-0.34
		C68.116,0.05,67.994,0,67.867,0c-0.649,0-1.797,0-2.446,0c-0.127,0-0.249,0.05-0.339,0.14c-0.09,0.09-0.142,0.212-0.142,0.34
		c0,2.457,0,13.609,0,16.067c0,0.127,0.052,0.249,0.142,0.34c0.09,0.09,0.212,0.141,0.339,0.141c0.649,0,1.797,0,2.446,0
		c0.127,0,0.249-0.051,0.339-0.141c0.09-0.091,0.141-0.213,0.141-0.34C68.347,14.089,68.347,2.937,68.347,0.48L68.347,0.48z"/>
	<path fill-rule="evenodd" clip-rule="evenodd" fill="#FFFFFF" d="M30.291,2.925c0,0.127-0.051,0.25-0.141,0.34
		c-0.09,0.09-0.212,0.14-0.339,0.14c-1.893,0-8.732,0-8.732,0v3.576c0,0,6.559,0,8.408,0c0.265,0,0.48,0.215,0.48,0.48
		c0,0.574,0,1.53,0,2.105c0,0.265-0.215,0.48-0.48,0.48c-1.849,0-8.408,0-8.408,0v3.575c0,0,6.974,0,8.887,0
		c0.127,0,0.249,0.051,0.339,0.141c0.09,0.09,0.141,0.212,0.141,0.339c0,0.649,0,1.798,0,2.446c0,0.127-0.051,0.249-0.141,0.34
		c-0.09,0.09-0.212,0.141-0.339,0.141c-2.017,0-9.795,0-11.812,0c-0.128,0-0.25-0.051-0.34-0.141c-0.09-0.091-0.14-0.213-0.14-0.34
		c0-2.458,0-13.61,0-16.067c0-0.128,0.05-0.25,0.14-0.34C17.904,0.05,18.026,0,18.154,0c1.999,0,9.657,0,11.657,0
		c0.127,0,0.249,0.05,0.339,0.14c0.09,0.09,0.141,0.212,0.141,0.34C30.291,1.128,30.291,2.277,30.291,2.925L30.291,2.925z"/>
	<path fill-rule="evenodd" clip-rule="evenodd" fill="#FFFFFF" d="M61.876,2.925c0,0.265-0.215,0.48-0.48,0.48
		c-1.239,0-4.458,0-4.458,0s0,10.725,0,13.142c0,0.127-0.05,0.249-0.14,0.34c-0.09,0.09-0.212,0.141-0.34,0.141
		c-0.648,0-1.797,0-2.445,0c-0.127,0-0.249-0.051-0.339-0.141c-0.09-0.091-0.141-0.213-0.141-0.34c0-2.417,0-13.142,0-13.142
		s-3.217,0-4.458,0c-0.265,0-0.48-0.215-0.48-0.48c0-0.648,0-1.797,0-2.445c0-0.128,0.051-0.25,0.141-0.34
		C48.826,0.05,48.948,0,49.075,0c2.073,0,10.248,0,12.32,0c0.129,0,0.25,0.05,0.341,0.14c0.09,0.09,0.14,0.212,0.14,0.34
		C61.876,1.128,61.876,2.277,61.876,2.925L61.876,2.925z"/>
	<path fill-rule="evenodd" clip-rule="evenodd" fill="#FFFFFF" d="M100.942,14.303c0,1.504-1.221,2.724-2.725,2.724
		c-2.16,0-5.164,0-7.324,0c-1.505,0-2.724-1.22-2.724-2.724c0-3.178,0-8.401,0-11.579C88.17,1.219,89.389,0,90.894,0
		c2.16,0,5.164,0,7.324,0c1.504,0,2.725,1.219,2.725,2.724C100.942,5.902,100.942,11.125,100.942,14.303L100.942,14.303z
		 M92.937,3.405c-0.752,0-1.361,0.61-1.361,1.362c0,1.956,0,5.537,0,7.492c0,0.753,0.609,1.362,1.361,1.362c0.971,0,2.269,0,3.237,0
		c0.753,0,1.363-0.609,1.363-1.362c0-1.955,0-5.536,0-7.492c0-0.752-0.61-1.362-1.363-1.362C95.205,3.405,93.907,3.405,92.937,3.405
		L92.937,3.405z"/>
	<path fill-rule="evenodd" clip-rule="evenodd" fill="#FFFFFF" d="M78.942,11.043c-0.127,0-0.249-0.051-0.34-0.141
		c-0.09-0.09-0.141-0.212-0.141-0.339c0-0.699,0-1.914,0-1.914c0-0.265,0.215-0.479,0.479-0.48c1.2-0.003,4.323-0.009,5.525-0.012
		c0.128,0,0.25,0.05,0.34,0.14c0.09,0.09,0.142,0.213,0.142,0.34c0,1.454,0,5.702,0,5.702c0,0.713-0.283,1.396-0.787,1.901
		c-0.504,0.504-1.188,0.787-1.901,0.787c-0.419,0-0.717,0-0.717,0H75.58c0,0-0.298,0-0.717,0c-0.713,0-1.397-0.283-1.901-0.787
		c-0.504-0.505-0.787-1.188-0.787-1.901c0-3.187,0-8.465,0-11.651c0-0.713,0.283-1.397,0.787-1.901C73.466,0.283,74.15,0,74.863,0
		c2.174,0,5.222,0,7.396,0c0.713,0,1.397,0.283,1.901,0.787c0.504,0.504,0.787,1.188,0.787,1.901c0,0,0,1.582,0,2.401
		c0,0.128-0.052,0.25-0.142,0.34c-0.09,0.09-0.212,0.14-0.339,0.14c-0.647,0-1.797,0-2.445,0c-0.265,0-0.479-0.215-0.479-0.48
		c0-0.42,0-0.964,0-0.964c0-0.191-0.076-0.374-0.211-0.509c-0.135-0.135-0.318-0.211-0.509-0.211c-0.964,0-2.691,0-3.898,0
		c-0.742,0-1.344,0.602-1.344,1.344c0,1.957,0,5.572,0,7.529c0,0.742,0.602,1.343,1.344,1.343c1.207,0,2.935,0,3.898,0
		c0.19,0,0.374-0.075,0.509-0.21c0.135-0.135,0.211-0.319,0.211-0.51v-1.858C81.542,11.043,79.808,11.043,78.942,11.043
		L78.942,11.043z"/>
	<path fill-rule="evenodd" clip-rule="evenodd" fill="#FFFFFF" d="M40.152,10.897h-3.135c0,0,0,4.206,0,5.65
		c0,0.127-0.051,0.249-0.141,0.34c-0.09,0.09-0.212,0.141-0.339,0.141c-0.649,0-1.798,0-2.446,0c-0.127,0-0.249-0.051-0.339-0.141
		c-0.09-0.091-0.141-0.213-0.141-0.34c0-2.458,0-13.61,0-16.067c0-0.265,0.215-0.48,0.48-0.48c0,0,6.082,0,9.752,0
		c0.722,0,1.414,0.286,1.924,0.797c0.51,0.51,0.797,1.202,0.797,1.924c0,1.665,0,3.789,0,5.455c0,1.503-1.218,2.721-2.721,2.721
		h-0.151c0,0,2.013,3.815,2.863,5.425c0.078,0.15,0.073,0.328-0.014,0.473s-0.243,0.232-0.411,0.232c-0.779,0-1.925,0-2.455,0
		c-0.178,0-0.342-0.1-0.425-0.256C42.638,15.61,40.152,10.897,40.152,10.897L40.152,10.897z M43.317,4.767
		c0-0.752-0.61-1.362-1.363-1.362h-4.937v4.768h4.937c0.753,0,1.363-0.61,1.363-1.362V4.767L43.317,4.767z"/>
	<path fill-rule="evenodd" clip-rule="evenodd" fill="#FF8F09" d="M10.613,9.314c0,0,0-6.929,0-8.834c0-0.128,0.051-0.25,0.141-0.34
		C10.844,0.05,10.966,0,11.093,0c0.648,0,1.797,0,2.446,0c0.127,0,0.249,0.05,0.339,0.14c0.09,0.09,0.141,0.212,0.141,0.34
		c0,2.034,0,9.843,0,9.843c0,0.368-0.149,0.72-0.414,0.977c-1.096,1.065-4.101,3.983-5.649,5.486
		c-0.529,0.513-1.37,0.513-1.899-0.001c-1.547-1.503-4.549-4.422-5.645-5.487C0.148,11.042,0,10.689,0,10.322C0,9.23,0,2.367,0,0.48
		c0-0.128,0.05-0.25,0.14-0.34C0.23,0.05,0.352,0,0.48,0c0.648,0,1.797,0,2.445,0c0.127,0,0.249,0.05,0.339,0.14
		c0.09,0.09,0.141,0.212,0.141,0.34c0,1.906,0,8.836,0,8.836l3.601,3.37L10.613,9.314L10.613,9.314z"/>
	<polygon fill="#FFFFFF" points="57.053,27.141 55.562,27.141 53.654,20.943 54.935,20.943 56.332,25.564 57.725,20.943 
		58.983,20.943 57.053,27.141 	"/>
	<path fill="#FFFFFF" d="M64.448,27.141l-1.581-2.346h-0.641v2.346h-1.263v-6.197h2.252c0.797,0,1.38,0.143,1.749,0.43
		c0.369,0.285,0.553,0.758,0.553,1.41c0,0.529-0.11,0.949-0.333,1.264c-0.223,0.313-0.539,0.514-0.947,0.6l1.656,2.494H64.448
		L64.448,27.141z M64.237,22.838c0-0.316-0.079-0.529-0.239-0.637s-0.423-0.162-0.791-0.162h-0.98v1.654h0.928
		c0.282,0,0.501-0.027,0.652-0.082c0.153-0.053,0.263-0.137,0.33-0.25S64.237,23.072,64.237,22.838L64.237,22.838z"/>
	<polygon fill="#FFFFFF" points="73.958,22.098 73.958,27.141 72.695,27.141 72.695,22.098 70.787,22.098 70.787,20.943 
		75.865,20.943 75.865,22.098 73.958,22.098 	"/>
	<path fill="#FFFFFF" d="M82.709,24.041c0,1.078-0.228,1.887-0.683,2.424s-1.117,0.807-1.986,0.807c-0.916,0-1.59-0.283-2.022-0.85
		c-0.431-0.566-0.646-1.359-0.646-2.381c0-1.025,0.216-1.82,0.646-2.385c0.433-0.563,1.106-0.844,2.022-0.844
		c0.923,0,1.598,0.281,2.027,0.844C82.495,22.221,82.709,23.016,82.709,24.041L82.709,24.041z M81.406,24.041
		c0-0.734-0.104-1.27-0.312-1.605c-0.208-0.334-0.559-0.502-1.055-0.502c-0.495,0-0.847,0.168-1.054,0.502
		c-0.208,0.336-0.313,0.871-0.313,1.605s0.106,1.271,0.316,1.605c0.211,0.336,0.561,0.504,1.05,0.504
		c0.496,0,0.847-0.168,1.055-0.504C81.302,25.313,81.406,24.775,81.406,24.041L81.406,24.041z"/>
	<path fill="#FFFFFF" d="M92.452,22.686c-0.158-0.258-0.352-0.447-0.578-0.57c-0.228-0.121-0.512-0.182-0.855-0.182
		c-0.563,0-0.973,0.18-1.225,0.543s-0.378,0.902-0.378,1.619c0,0.711,0.124,1.23,0.373,1.561c0.25,0.33,0.651,0.494,1.203,0.494
		c0.418,0,0.803-0.086,1.154-0.26V24.93h-1.209v-1.115h2.478v2.74c-0.287,0.215-0.644,0.387-1.068,0.52
		c-0.426,0.131-0.863,0.197-1.314,0.197c-0.967,0-1.696-0.252-2.186-0.758c-0.49-0.504-0.734-1.311-0.734-2.418
		c0-2.189,0.963-3.283,2.889-3.283c0.561,0,1.051,0.094,1.469,0.283c0.418,0.188,0.736,0.463,0.954,0.828L92.452,22.686
		L92.452,22.686z"/>
	<path fill="#FFFFFF" d="M100.935,24.041c0,1.078-0.228,1.887-0.683,2.424s-1.117,0.807-1.986,0.807
		c-0.917,0-1.591-0.283-2.021-0.85c-0.433-0.566-0.647-1.359-0.647-2.381c0-1.025,0.215-1.82,0.647-2.385
		c0.431-0.563,1.104-0.844,2.021-0.844c0.922,0,1.599,0.281,2.026,0.844C100.721,22.221,100.935,23.016,100.935,24.041
		L100.935,24.041z M99.632,24.041c0-0.734-0.104-1.27-0.312-1.605c-0.207-0.334-0.56-0.502-1.055-0.502
		c-0.496,0-0.847,0.168-1.055,0.502c-0.207,0.336-0.311,0.871-0.311,1.605s0.104,1.271,0.315,1.605
		c0.21,0.336,0.561,0.504,1.05,0.504c0.495,0,0.848-0.168,1.055-0.504C99.528,25.313,99.632,24.775,99.632,24.041L99.632,24.041z"/>
</g>
</svg>
